<svg xmlns="http://www.w3.org/2000/svg" width="25" height="25" viewBox="0 0 25 25" fill="none">
  <path d="M20 14C20.0019 14.3058 19.909 14.6047 19.7341 14.8555C19.5591 15.1063 19.3108 15.2968 19.0232 15.4006L14.181 17.1819L12.3997 22.0203C12.2942 22.3069 12.1034 22.5542 11.8529 22.7289C11.6025 22.9036 11.3045 22.9972 10.9991 22.9972C10.6937 22.9972 10.3957 22.9036 10.1453 22.7289C9.89479 22.5542 9.70395 22.3069 9.59846 22.0203L7.81253 17.1875L2.97315 15.4062C2.68659 15.3008 2.43927 15.1099 2.26458 14.8595C2.08988 14.609 1.99622 14.311 1.99622 14.0056C1.99622 13.7003 2.08988 13.4022 2.26458 13.1518C2.43927 12.9013 2.68659 12.7105 2.97315 12.605L7.81534 10.8238L9.59659 5.98531C9.70207 5.69875 9.89292 5.45143 10.1434 5.27674C10.3938 5.10204 10.6919 5.00838 10.9972 5.00838C11.3026 5.00838 11.6006 5.10204 11.8511 5.27674C12.1015 5.45143 12.2924 5.69875 12.3978 5.98531L14.1791 10.8275L19.0175 12.6088C19.3047 12.7111 19.5532 12.8998 19.7291 13.1488C19.9049 13.3978 19.9996 13.6951 20 14ZM14.75 5H16.25V6.5C16.25 6.69891 16.329 6.88968 16.4697 7.03033C16.6103 7.17098 16.8011 7.25 17 7.25C17.1989 7.25 17.3897 7.17098 17.5304 7.03033C17.671 6.88968 17.75 6.69891 17.75 6.5V5H19.25C19.4489 5 19.6397 4.92098 19.7804 4.78033C19.921 4.63968 20 4.44891 20 4.25C20 4.05109 19.921 3.86032 19.7804 3.71967C19.6397 3.57902 19.4489 3.5 19.25 3.5H17.75V2C17.75 1.80109 17.671 1.61032 17.5304 1.46967C17.3897 1.32902 17.1989 1.25 17 1.25C16.8011 1.25 16.6103 1.32902 16.4697 1.46967C16.329 1.61032 16.25 1.80109 16.25 2V3.5H14.75C14.5511 3.5 14.3603 3.57902 14.2197 3.71967C14.079 3.86032 14 4.05109 14 4.25C14 4.44891 14.079 4.63968 14.2197 4.78033C14.3603 4.92098 14.5511 5 14.75 5ZM23 8H22.25V7.25C22.25 7.05109 22.171 6.86032 22.0304 6.71967C21.8897 6.57902 21.6989 6.5 21.5 6.5C21.3011 6.5 21.1103 6.57902 20.9697 6.71967C20.829 6.86032 20.75 7.05109 20.75 7.25V8H20C19.8011 8 19.6103 8.07902 19.4697 8.21967C19.329 8.36032 19.25 8.55109 19.25 8.75C19.25 8.94891 19.329 9.13968 19.4697 9.28033C19.6103 9.42098 19.8011 9.5 20 9.5H20.75V10.25C20.75 10.4489 20.829 10.6397 20.9697 10.7803C21.1103 10.921 21.3011 11 21.5 11C21.6989 11 21.8897 10.921 22.0304 10.7803C22.171 10.6397 22.25 10.4489 22.25 10.25V9.5H23C23.1989 9.5 23.3897 9.42098 23.5304 9.28033C23.671 9.13968 23.75 8.94891 23.75 8.75C23.75 8.55109 23.671 8.36032 23.5304 8.21967C23.3897 8.07902 23.1989 8 23 8Z" fill="#D3FFCC"/>
</svg>